<svg width="110" height="124" viewBox="0 0 110 124" fill="none" xmlns="http://www.w3.org/2000/svg">
<path id="Candadito" d="M18.8546 49.3576H15.2842C5.87136 49.3576 2.13867 58.2589 2.13867 63.2779V109.408C2.13867 114.911 7.65656 121.71 15.7711 121.71H95.4559C103.246 121.71 108.115 114.102 108.115 108.599V62.1436C108.115 54.2123 100.325 49.3564 95.1313 49.3564H91.3986M18.8546 49.3576V36.5703C18.8546 25.2386 29.5658 2.09326 55.37 2.09326C78.4153 2.09326 91.3986 22.6488 91.3986 36.084V49.3564M18.8546 49.3576H32.0002M91.3986 49.3564H78.2531M32.0002 49.3576V36.5703C32.0002 28.3141 39.9199 15.1707 55.37 15.0412C68.5156 15.0412 78.2531 25.7242 78.2531 36.5703V49.3564M32.0002 49.3576L78.2531 49.3564M9.27947 63.4386C9.67694 60.0028 14.2928 59.0483 16.5926 61.3677C17.7085 62.4931 17.7186 64.2394 17.7186 65.8243V105.07C17.7186 106.768 17.6873 108.642 16.4646 109.82C14.8685 111.357 12.3005 111.46 10.6397 109.938C9.31167 108.72 9.27947 106.714 9.27947 104.913V63.4386Z" stroke="#3CC1EB" stroke-width="3"/>
</svg>
