<svg width="135" height="103" viewBox="0 0 135 103" fill="none" xmlns="http://www.w3.org/2000/svg">
<path id="Vector 34" d="M133 69.5002V7.20374C133 3.82878 130.18 2 128.206 2L7.78122 2C3.83288 1.99997 2 3.96936 2 7.20374V69.5002M133 69.5002V73.7182C133 76.2502 132.013 78.7807 128.206 78.7807H74.903M133 69.5002H2M2 69.5002V73.7182C2 77.5151 4.53794 78.7807 7.92224 78.7807H60.6608M77.5822 91.8594H80.8255C85.6199 91.8594 89.7093 95.375 89.7093 101H44.8674C44.8674 94.8125 51.495 91.8594 54.7383 91.8594H57.6995M77.5822 91.8594L74.903 78.7807M77.5822 91.8594H57.6995M74.903 78.7807H60.6608M60.6608 78.7807L57.6995 91.8594M70.1086 22.3911C69.2625 22.2505 67.5704 22.4474 67.5704 24.3599C67.5704 24.8096 67.5704 26.4554 67.5704 28.8598M70.1086 22.3911C87.5001 22.3911 122.678 22.3911 124.257 22.3911C125.837 22.3911 126.419 23.7036 126.513 24.3599C126.513 25.715 126.513 27.2329 126.513 28.8598M70.1086 22.3911V15.3599M67.5704 49.3909C67.5704 53.83 67.5704 58.0708 67.5704 61.344C67.5704 61.9065 67.937 63.0596 69.4035 63.1721C70.87 63.2846 106.584 63.219 124.257 63.1721C125.009 63.219 126.513 62.919 126.513 61.344C126.513 59.9519 126.513 41.2451 126.513 28.8598M67.5704 49.3909C51.0249 49.4378 17.2854 49.5034 14.6908 49.3909C12.0962 49.2784 11.1655 47.8441 11.0245 47.141V15.3599M67.5704 49.3909C67.5704 41.869 67.5704 33.7776 67.5704 28.8598M11.0245 15.3599V11.5631C11.0245 9.4537 11.8706 8.75058 14.6908 8.75058H67.5704C69.1215 8.75058 69.883 9.53807 70.1086 11.5631V15.3599M11.0245 15.3599H70.1086M67.5704 28.8598H126.513M76.1721 35.891H87.8761M93.6576 35.891H101.977M107.759 35.891H117.912M112.553 44.6097L118.899 49.3909L112.553 53.8909M103.669 53.8909L106.067 44.6097M97.0419 44.6097L90.4143 49.3909L97.0419 53.8909M86.043 56.2815H76.1721M76.1721 49.3909H81.8126M76.1721 42.5004H87.8761M17.6521 40.391H29.2151M35.4196 40.391H41.0601M46.8416 40.391H61.2248M59.1096 31.3911H53.8922M53.8922 24.3599H61.2248M41.0601 24.3599L46.8416 28.8598L41.0601 33.5004M33.8685 24.3599L31.4713 33.5004M24.7027 33.5004L17.6521 28.8598L24.7027 24.3599" stroke="#3CC1EB" stroke-width="3" stroke-linecap="round" stroke-linejoin="round"/>
</svg>
