<svg width="128" height="127" viewBox="0 0 128 127" fill="none" xmlns="http://www.w3.org/2000/svg">
<path id="Vector 33" d="M32.3194 15.6941H23.7266C19.8606 15.6941 16.7265 18.8281 16.7265 22.6941V31.3621M32.3194 15.6941V2M32.3194 15.6941H48.0359M48.0359 15.6941V2M48.0359 15.6941H63.8762M63.8762 15.6941V2M63.8762 15.6941H79.8403M79.8403 2V15.6941M79.8403 15.6941H95.6806M95.6806 2V15.6941M95.6806 15.6941H104.768C108.634 15.6941 111.768 18.8281 111.768 22.6941V31.3621M95.6806 125V110.566M95.6806 110.566H104.768C108.634 110.566 111.768 107.432 111.768 103.566V94.5276M95.6806 110.566H79.8403M79.8403 125V110.566M79.8403 110.566H63.8762M63.8762 125V110.566M63.8762 110.566H48.0359M48.0359 125V110.566M48.0359 110.566H32.3194M32.3194 125V110.566M32.3194 110.566H23.7265C19.8606 110.566 16.7265 107.432 16.7265 103.566V94.5276M53.6048 52.9519H74.2715M45.8084 66.8927H82.1916M82.1916 74.7884H45.8084M2 31.3621H16.7265M16.7265 31.3621V47.2768M2 47.2768H16.7265M16.7265 47.2768V62.9448M2 62.9448H16.7265M16.7265 62.9448V78.8596M2 78.8596H16.7265M16.7265 78.8596V94.5276M2 94.5276H16.7265M126 94.5276H111.768M111.768 94.5276V78.8596M126 78.8596H111.768M111.768 78.8596V62.9448M126 62.9448H111.768M111.768 62.9448V47.2768M126 47.2768H111.768M111.768 47.2768V31.3621M126 31.3621H111.768M93.8244 85.1836V40.336C93.8244 36.47 90.6903 33.336 86.8244 33.336H41.4232C37.5572 33.336 34.4232 36.47 34.4232 40.336V85.1836C34.4232 89.0495 37.5572 92.1836 41.4232 92.1836H86.8244C90.6903 92.1836 93.8244 89.0495 93.8244 85.1836ZM101.126 93.4493V32.8104C101.126 28.9444 97.9917 25.8104 94.1257 25.8104H33.1317C29.2657 25.8104 26.1317 28.9444 26.1317 32.8104V93.4493C26.1317 97.3153 29.2658 100.449 33.1317 100.449H94.1258C97.9917 100.449 101.126 97.3153 101.126 93.4493Z" stroke="#3CC1EB" stroke-width="4" stroke-linecap="round" stroke-linejoin="round"/>
</svg>
