<svg width="133" height="124" viewBox="0 0 133 124" fill="none" xmlns="http://www.w3.org/2000/svg">
<path id="Vector 30" d="M32.1419 30.077C30.764 30.077 30.3238 31.4536 30.276 32.1419V43.4632C30.276 45.8556 32.1419 46.0739 33.0749 45.8841H79.9383C83.8998 45.7701 85.8232 45.0296 86.3973 43.9616C87.0432 40.1878 90.1291 32.2843 92.0668 30.077M32.1419 30.077C33.5198 30.077 72.666 30.077 92.0668 30.077M32.1419 30.077H92.0668M50.2988 52.0075C50.2988 50.5835 48.8635 50.1325 48.1458 50.085C43.7202 50.0613 34.4097 50.0281 32.5725 50.085C30.7353 50.142 30.276 51.3904 30.276 52.0075C30.252 59.1041 30.2185 73.7814 30.276 75.7181C30.3334 77.6548 31.8787 77.9966 32.6443 77.9254C37.1416 77.9491 46.5813 77.9824 48.3611 77.9254C50.1409 77.8684 50.3945 76.4301 50.2988 75.7181M50.2988 52.0075C50.2988 53.4316 50.2988 68.4079 50.2988 75.7181M50.2988 52.0075V75.7181M55.8248 50.085C54.9636 50.085 54.6526 50.6547 54.6048 50.9395V53.1468C54.6048 53.7164 55.4181 53.9537 55.8248 54.0012M55.8248 50.085C56.686 50.085 69.7714 50.085 76.2065 50.085M55.8248 50.085H76.2065M76.2065 50.085L74.2688 53.0756C74.1013 53.3841 73.5511 54.0012 72.6899 54.0012M72.6899 54.0012C71.8287 54.0012 61.0877 54.0012 55.8248 54.0012M72.6899 54.0012H55.8248M55.8248 61.9047C54.7914 61.9047 54.5808 61.3826 54.6048 61.1215V59.1278C54.6048 58.1595 55.3224 58.131 55.8248 58.131H72.2593C72.1158 58.4158 71.8048 60.6943 71.6852 61.9047M55.8248 61.9047C56.8582 61.9047 66.829 61.9047 71.6852 61.9047M55.8248 61.9047H71.6852M55.8248 66.1057C54.6765 66.1057 54.533 66.6753 54.6048 66.9601V68.9538C54.6048 69.8795 55.3224 69.8795 55.8248 69.8795H69.3169C71.6708 69.6516 72.0201 67.2687 71.9005 66.1057M55.8248 66.1057C56.9731 66.1057 67.0204 66.1057 71.9005 66.1057M55.8248 66.1057H71.9005M54.6048 75.2909C54.533 74.9111 54.6765 74.1516 55.8248 74.1516M54.6048 75.2909C54.6048 75.5282 54.6048 76.2023 54.6048 76.9998M54.6048 75.2909V76.9998M55.8248 74.1516C56.9731 74.1516 63.8148 74.1516 67.0921 74.1516M55.8248 74.1516H67.0921M67.0921 74.1516C67.2357 75.1485 67.5801 77.2988 67.8098 77.9254H55.8248C55.4181 77.9491 54.6048 77.7972 54.6048 76.9998M38.4574 117.657V120.149C38.3617 120.766 38.6296 122 40.4668 122H84.8184C85.3686 121.929 86.4834 121.502 86.5408 120.362V117.87C86.5647 117.419 86.2538 116.403 84.8184 115.948C83.0243 115.378 75.3453 115.236 74.1252 106.051H114.027C117.113 106.051 122.926 103.202 122.926 97.2214V38.1229L115.606 48.3049C115.415 48.6847 115.032 49.7432 115.032 50.9395V83.9776C115.032 84.9033 114.501 86.1849 113.238 86.1849H12.1191C11.4014 86.1849 9.96607 85.601 9.96607 84.4048V23.5975C10.0378 23.0042 10.5402 21.8317 11.9755 21.8886C13.4109 21.9456 70.1302 22.0548 96.9469 22.0311C97.3297 22.0785 98.3966 21.7605 99.6023 20.1086L104.339 13.9851H11.4014C6.44952 13.9851 2 18.3285 2 23.2415V96.8654C2 101.992 6.09068 105.979 10.6837 105.979H50.7294C50.7294 109.255 49.3658 113.94 41.328 115.592C40.4668 115.782 38.687 116.46 38.4574 117.657ZM57.9778 95.9397C57.9778 94.1597 59.1813 91.5964 62.2838 91.5964C65.3862 91.5964 66.9486 94.0885 66.9486 95.9397C66.9486 97.791 65.8721 100.497 62.5708 100.497C59.2696 100.497 57.9778 97.7198 57.9778 95.9397ZM98.167 31.9995C98.0234 31.7859 97.8225 31.2305 98.167 30.7178C104.482 22.1497 118.85 4.47242 125.797 2.30785C127.113 1.78569 129.959 1.5531 130.821 4.79995C132.041 7.71929 127.089 22.8855 114.314 41.2559C114.123 41.6356 113.396 42.3097 112.018 41.9679C110.295 41.5407 101.54 37.6957 98.167 31.9995ZM94.8657 36.2005C96.8513 39.1435 102.674 45.3572 110.08 46.6673C107.975 48.8271 102.76 53.3461 98.7411 54.1436C105.2 65.2513 89.3397 83.4792 73.6946 76.2165C73.0727 75.8842 72.0871 74.9918 73.1205 74.0804C74.9625 73.1785 78.503 69.5947 77.283 63.1864C75.9951 56.4221 82.0913 49.1594 91.6362 49.1594C91.4209 46.6673 91.7654 40.5866 94.8657 36.2005Z" stroke="#3CC1EB" stroke-width="3"/>
</svg>
