<svg width="140" height="121" viewBox="0 0 140 121" fill="none" xmlns="http://www.w3.org/2000/svg">
<g id="Vector 11">
<path d="M57.9564 6.77111L129.33 56.5854C130.881 57.7469 133.265 60.7151 130.394 63.2962C127.523 65.8772 103.678 84.1596 92.1149 92.9782C90.4227 94.2688 88.0744 95.327 85.2035 92.333L20.0762 47.0355C16.4875 44.7126 14.6267 40.5829 16.4876 37.2276L39.0826 9.35221C42.8042 4.44822 47.2933 -2.97918 57.9564 6.77111Z" stroke="#3CC1EB" stroke-width="3"/>
<path d="M134.913 69.7488C136.596 70.3941 139.405 72.6138 137.172 76.3305L118.83 98.6566C117.767 99.689 115.029 101.263 112.583 99.3018L104.343 93.6235L134.913 69.7488Z" stroke="#3CC1EB" stroke-width="3"/>
<path d="M2 75.2981V115.562C2 119.95 9.97476 120.337 9.97476 115.562V107.432C18.9685 108.422 40.2789 106.451 53.5701 90.6553L57.0259 92.9782C57.9119 93.7525 60.2689 94.8366 62.6082 92.9782L66.0639 88.4614L33.7661 66.1353L30.5762 70.0069C29.5129 71.4265 28.3433 74.627 32.1712 76.0724L33.7661 77.4919C30.9307 80.5032 27.6522 84.5898 9.97476 84.0736V75.2981C9.97476 71.1684 2 70.9103 2 75.2981Z" stroke="#3CC1EB" stroke-width="3"/>
</g>
</svg>
