<svg width="123" height="123" viewBox="0 0 123 123" fill="none" xmlns="http://www.w3.org/2000/svg">
<path id="Vector 42" d="M4.74461 78.9918C8.58706 76.9791 15.1741 70.7575 15.1741 58.6817C15.1741 43.8199 31.6418 15.3166 60.7346 15.3167M2 61.9748C2.18297 53.9239 5.07396 35.1874 15.1741 24.6481M24.5058 14.7675C28.7142 11.474 37.6458 4.5803 50.3808 2.82375M58.5389 2.14233C65.4919 2.32531 81.0447 3.89888 87.6318 8.72939M95.3167 13.6697C100.989 17.6951 113.212 28.7101 116.725 40.5669M119.469 49.8985C119.835 50.9964 120.567 55.3877 120.567 64.1705M68.9684 16.4143C84.8872 18.61 108.491 34.5287 107.393 61.9748M106.844 72.9532C105.929 80.8211 102.562 99.0819 96.4145 109.182M75.0066 119.612C91.4742 98.7526 113.905 33.9798 60.7346 28.4906M9.6849 91.0676C14.8082 89.0549 25.6036 81.5164 27.7993 67.464M28.3482 61.4259C28.7142 52.4602 34.3864 33.5407 54.1476 29.5884M61.8325 41.6647C55.6114 41.4817 41.5224 46.605 41.5224 63.0726C39.8756 85.0295 27.7993 96.0079 17.9187 102.046M27.7993 110.829C32.1907 107.718 41.6321 100.18 44.267 94.9101M67.8706 61.4259C67.8706 53.1921 55.2454 52.0942 54.6965 61.4259C54.6965 73.7217 49.9392 85.2125 47.5605 89.4209M67.3217 68.5619C67.3217 81.1871 57.99 104.791 40.9734 117.965M56.8922 120.709C68.9684 109.182 95.7558 56.4856 68.9684 43.3115" stroke="#3CC1EB" stroke-width="4" stroke-linecap="round" stroke-linejoin="round"/>
</svg>
